<?xml version="1.0" encoding="UTF-8" standalone="no"?>
<!DOCTYPE svg PUBLIC "-//W3C//DTD SVG 1.0//EN" "http://www.w3.org/TR/2001/PR-SVG-20010719/DTD/svg10.dtd">
<svg width="69cm" height="41cm" viewBox="-2 0 1362 820" xmlns="http://www.w3.org/2000/svg" xmlns:xlink="http://www.w3.org/1999/xlink">
  <defs/>
  <g id="Background">
    <text font-size="16.9333" style="fill: #000000; fill-opacity: 1; stroke: none;text-anchor:start;font-family:sans-serif;font-style:normal;font-weight:700" x="20" y="405.862">
      <tspan x="20" y="405.862">CPU</tspan>
    </text>
    <text font-size="16.9333" style="fill: #000000; fill-opacity: 1; stroke: none;text-anchor:start;font-family:sans-serif;font-style:normal;font-weight:700" x="20" y="665.862">
      <tspan x="20" y="665.862">VMM</tspan>
    </text>
    <text font-size="16.9333" style="fill: #000000; fill-opacity: 1; stroke: none;text-anchor:start;font-family:sans-serif;font-style:normal;font-weight:700" x="20" y="145.862">
      <tspan x="20" y="145.862">Guest</tspan>
    </text>
    <g>
      <path style="fill: #ffffff; fill-opacity: 1; stroke-opacity: 1; stroke-width: 2; stroke: #000000" fill-rule="evenodd" d="M 120.362 40 L 201.813,40 C 213.058,40 222.175,48.9543 222.175,60 C 222.175,71.0457 213.058,80 201.813,80 L 120.362,80 C 109.117,80 100,71.0457 100,60 C 100,48.9543 109.117,40 120.362,40z"/>
      <text font-size="16.9333" style="fill: #000000; fill-opacity: 1; stroke: none;text-anchor:middle;font-family:sans-serif;font-style:normal;font-weight:normal" x="161.088" y="65.1346">
        <tspan x="161.088" y="65.1346">pv_out</tspan>
      </text>
    </g>
    <line style="fill: none; stroke-opacity: 1; stroke-width: 2; stroke: #000000" x1="0" y1="520" x2="1340" y2="520"/>
    <line style="fill: none; stroke-opacity: 1; stroke-width: 2; stroke: #000000" x1="0" y1="300" x2="1340" y2="300"/>
    <g transform="matrix(0.3,0,0,0.3,321.612,-452)">
      <rect style="fill: #e4f3ff; fill-opacity: 1; stroke-opacity: 1; stroke-width: 2; stroke: #000000" x="560" y="1840" width="460" height="360" rx="0" ry="0"/>
      <text font-size="12.8" style="fill: #000000; fill-opacity: 1; stroke: none;text-anchor:middle;font-family:sans-serif;font-style:normal;font-weight:normal" x="790" y="2023.88">
        <tspan x="790" y="2023.88"></tspan>
      </text>
      <g>
        <rect style="fill: #c9dcec; fill-opacity: 1; stroke-opacity: 1; stroke-width: 2; stroke: #000000" x="580" y="1920" width="420" height="260" rx="0" ry="0"/>
        <text font-size="12.8" style="fill: #000000; fill-opacity: 1; stroke: none;text-anchor:middle;font-family:sans-serif;font-style:normal;font-weight:normal" x="790" y="2053.88">
          <tspan x="790" y="2053.88"></tspan>
        </text>
      </g>
      <rect style="fill: #e4f3ff; fill-opacity: 1; stroke-opacity: 1; stroke-width: 2; stroke: #000000" x="600" y="1940" width="380" height="40" rx="0" ry="0"/>
      <rect style="fill: #e4f3ff; fill-opacity: 1; stroke-opacity: 1; stroke-width: 2; stroke: #000000" x="600" y="2000" width="380" height="40" rx="0" ry="0"/>
      <rect style="fill: #e4f3ff; fill-opacity: 1; stroke-opacity: 1; stroke-width: 2; stroke: #000000" x="600" y="2120" width="380" height="40" rx="0" ry="0"/>
      <rect style="fill: #e4f3ff; fill-opacity: 1; stroke-opacity: 1; stroke-width: 2; stroke: #000000" x="600" y="2060" width="380" height="40" rx="0" ry="0"/>
      <text font-size="135.467" style="fill: #000000; fill-opacity: 1; stroke: none;text-anchor:middle;font-family:sans-serif;font-style:normal;font-weight:700" x="790" y="2066.9">
        <tspan x="790" y="2066.9">GHCB</tspan>
      </text>
    </g>
    <rect style="fill: #ffffff; fill-opacity: 1; stroke-opacity: 1; stroke-width: 0.02; stroke: #000000" x="1340" y="520" width="20" height="300" rx="0" ry="0"/>
    <rect style="fill: #ffffff; fill-opacity: 1; stroke-opacity: 1; stroke-width: 0.02; stroke: #000000" x="1340" y="0" width="20" height="300" rx="0" ry="0"/>
    <rect style="fill: #ffffff; fill-opacity: 1; stroke-opacity: 1; stroke-width: 0.02; stroke: #000000" x="1340" y="300" width="20" height="220" rx="0" ry="0"/>
    <line style="fill: none; stroke-opacity: 1; stroke-width: 0.02; stroke: #000000" x1="1340" y1="820" x2="0" y2="820"/>
    <g>
      <path style="fill: none; stroke-opacity: 1; stroke-width: 2; stroke-dasharray: 20 8 4 8; stroke: #000000" d="M 221.68,67.5972 A 391.666,391.666 0 0 1 471.24,95.756"/>
      <polygon style="fill: #000000; fill-opacity: 1; stroke-opacity: 1; stroke-width: 2; stroke: #000000" fill-rule="evenodd" points="478,99.0001 466.82,99.0008 471.292,95.6464 471.291,90.0563 "/>
    </g>
  </g>
</svg>
