<?xml version="1.0" encoding="UTF-8" standalone="no"?>
<!DOCTYPE svg PUBLIC "-//W3C//DTD SVG 1.0//EN" "http://www.w3.org/TR/2001/PR-SVG-20010719/DTD/svg10.dtd">
<svg width="69cm" height="41cm" viewBox="-2 0 1362 820" xmlns="http://www.w3.org/2000/svg" xmlns:xlink="http://www.w3.org/1999/xlink">
  <defs/>
  <g id="Background">
    <text font-size="16.9333" style="fill: #000000; fill-opacity: 1; stroke: none;text-anchor:start;font-family:sans-serif;font-style:normal;font-weight:700" x="20" y="405.862">
      <tspan x="20" y="405.862">CPU</tspan>
    </text>
    <text font-size="16.9333" style="fill: #000000; fill-opacity: 1; stroke: none;text-anchor:start;font-family:sans-serif;font-style:normal;font-weight:700" x="20" y="665.862">
      <tspan x="20" y="665.862">VMM</tspan>
    </text>
    <text font-size="16.9333" style="fill: #000000; fill-opacity: 1; stroke: none;text-anchor:start;font-family:sans-serif;font-style:normal;font-weight:700" x="20" y="145.862">
      <tspan x="20" y="145.862">Guest</tspan>
    </text>
    <g>
      <path style="fill: #ffffff; fill-opacity: 1; stroke-opacity: 1; stroke-width: 2; stroke: #000000" fill-rule="evenodd" d="M 120.362 40 L 201.813,40 C 213.058,40 222.175,48.9543 222.175,60 C 222.175,71.0457 213.058,80 201.813,80 L 120.362,80 C 109.117,80 100,71.0457 100,60 C 100,48.9543 109.117,40 120.362,40z"/>
      <text font-size="16.9333" style="fill: #000000; fill-opacity: 1; stroke: none;text-anchor:middle;font-family:sans-serif;font-style:normal;font-weight:normal" x="161.088" y="65.1346">
        <tspan x="161.088" y="65.1346">pv_cpuid</tspan>
      </text>
    </g>
    <g>
      <path style="fill: #ffffff; fill-opacity: 1; stroke-opacity: 1; stroke-width: 2; stroke: #000000" fill-rule="evenodd" d="M 245.838 540 L 406.438,540 C 428.612,540 446.588,548.954 446.588,560 C 446.588,571.046 428.612,580 406.438,580 L 245.838,580 C 223.664,580 205.688,571.046 205.688,560 C 205.688,548.954 223.664,540 245.838,540z"/>
      <text font-size="16.9333" style="fill: #000000; fill-opacity: 1; stroke: none;text-anchor:middle;font-family:sans-serif;font-style:normal;font-weight:normal" x="326.138" y="565.135">
        <tspan x="326.138" y="565.135">svm_handle_exit()</tspan>
      </text>
    </g>
    <line style="fill: none; stroke-opacity: 1; stroke-width: 2; stroke: #000000" x1="0" y1="520" x2="1340" y2="520"/>
    <line style="fill: none; stroke-opacity: 1; stroke-width: 2; stroke: #000000" x1="0" y1="300" x2="1340" y2="300"/>
    <g>
      <line style="fill: none; stroke-opacity: 1; stroke-width: 2; stroke: #000000" x1="168.305" y1="80.9912" x2="322.972" y2="530.793"/>
      <polygon style="fill: #000000; fill-opacity: 1; stroke-opacity: 1; stroke-width: 2; stroke: #000000" fill-rule="evenodd" points="325.411,537.885 317.431,530.055 322.972,530.793 326.887,526.803 "/>
    </g>
    <text font-size="14.1111" style="fill: #000000; fill-opacity: 1; stroke: none;text-anchor:start;font-family:sans-serif;font-style:normal;font-weight:700" x="300" y="404.885">
      <tspan x="300" y="404.885">SVM_EXIT_VMGEXIT</tspan>
    </text>
    <g transform="matrix(0.3,0,0,0.3,321.612,-452)">
      <rect style="fill: #e4f3ff; fill-opacity: 1; stroke-opacity: 1; stroke-width: 2; stroke: #000000" x="560" y="1840" width="460" height="360" rx="0" ry="0"/>
      <text font-size="12.8" style="fill: #000000; fill-opacity: 1; stroke: none;text-anchor:middle;font-family:sans-serif;font-style:normal;font-weight:normal" x="790" y="2023.88">
        <tspan x="790" y="2023.88"></tspan>
      </text>
      <g>
        <rect style="fill: #c9dcec; fill-opacity: 1; stroke-opacity: 1; stroke-width: 2; stroke: #000000" x="580" y="1920" width="420" height="260" rx="0" ry="0"/>
        <text font-size="12.8" style="fill: #000000; fill-opacity: 1; stroke: none;text-anchor:middle;font-family:sans-serif;font-style:normal;font-weight:normal" x="790" y="2053.88">
          <tspan x="790" y="2053.88"></tspan>
        </text>
      </g>
      <rect style="fill: #e4f3ff; fill-opacity: 1; stroke-opacity: 1; stroke-width: 2; stroke: #000000" x="600" y="1940" width="380" height="40" rx="0" ry="0"/>
      <rect style="fill: #e4f3ff; fill-opacity: 1; stroke-opacity: 1; stroke-width: 2; stroke: #000000" x="600" y="2000" width="380" height="40" rx="0" ry="0"/>
      <rect style="fill: #e4f3ff; fill-opacity: 1; stroke-opacity: 1; stroke-width: 2; stroke: #000000" x="600" y="2120" width="380" height="40" rx="0" ry="0"/>
      <rect style="fill: #e4f3ff; fill-opacity: 1; stroke-opacity: 1; stroke-width: 2; stroke: #000000" x="600" y="2060" width="380" height="40" rx="0" ry="0"/>
      <text font-size="135.467" style="fill: #000000; fill-opacity: 1; stroke: none;text-anchor:middle;font-family:sans-serif;font-style:normal;font-weight:700" x="790" y="2066.9">
        <tspan x="790" y="2066.9">GHCB</tspan>
      </text>
    </g>
    <g transform="matrix(0.3,0,0,0.3,664,324)">
      <g>
        <rect style="fill: #f7a4a4; fill-opacity: 1; stroke-opacity: 1; stroke-width: 2; stroke: #000000" x="1720" y="120" width="460" height="420" rx="0" ry="0"/>
        <text font-size="12.8" style="fill: #000000; fill-opacity: 1; stroke: none;text-anchor:middle;font-family:sans-serif;font-style:normal;font-weight:normal" x="1950" y="333.881">
          <tspan x="1950" y="333.881"></tspan>
        </text>
      </g>
      <g>
        <rect style="fill: #f7bcc3; fill-opacity: 1; stroke-opacity: 1; stroke-width: 2; stroke: #000000" x="1740" y="140" width="420" height="380" rx="0" ry="0"/>
        <text font-size="12.8" style="fill: #000000; fill-opacity: 1; stroke: none;text-anchor:middle;font-family:sans-serif;font-style:normal;font-weight:normal" x="1950" y="333.881">
          <tspan x="1950" y="333.881"></tspan>
        </text>
      </g>
      <rect style="fill: #f7bcc3; fill-opacity: 1; stroke-opacity: 1; stroke-width: 2; stroke: #f7bcc3" x="1760" y="160" width="380" height="40" rx="0" ry="0"/>
      <rect style="fill: #f5e5e5; fill-opacity: 1; stroke-opacity: 1; stroke-width: 2; stroke: #000000" x="1760" y="460" width="380" height="40" rx="0" ry="0"/>
      <rect style="fill: #f5e5e5; fill-opacity: 1; stroke-opacity: 1; stroke-width: 2; stroke: #000000" x="1760" y="400" width="380" height="40" rx="0" ry="0"/>
      <rect style="fill: #f5e5e5; fill-opacity: 1; stroke-opacity: 1; stroke-width: 2; stroke: #000000" x="1760" y="340" width="380" height="40" rx="0" ry="0"/>
      <rect style="fill: #f5e5e5; fill-opacity: 1; stroke-opacity: 1; stroke-width: 2; stroke: #000000" x="1760" y="280" width="380" height="40" rx="0" ry="0"/>
      <rect style="fill: #f5e5e5; fill-opacity: 1; stroke-opacity: 1; stroke-width: 2; stroke: #000000" x="1760" y="220" width="380" height="40" rx="0" ry="0"/>
      <text font-size="135.467" style="fill: #000000; fill-opacity: 1; stroke: none;text-anchor:middle;font-family:sans-serif;font-style:normal;font-weight:700" x="1950" y="376.897">
        <tspan x="1950" y="376.897">VMSA</tspan>
      </text>
      <g>
        <rect style="fill: #e5e5e5; fill-opacity: 1; stroke-opacity: 1; stroke-width: 2; stroke: #000000" x="1080" y="0" width="460" height="580" rx="0" ry="0"/>
        <text font-size="12.8" style="fill: #000000; fill-opacity: 1; stroke: none;text-anchor:middle;font-family:sans-serif;font-style:normal;font-weight:normal" x="1310" y="293.881">
          <tspan x="1310" y="293.881"></tspan>
        </text>
      </g>
      <g>
        <g>
          <rect style="fill: #cacaca; fill-opacity: 1; stroke-opacity: 1; stroke-width: 2; stroke: #000000" x="1100" y="360" width="420" height="200" rx="0" ry="0"/>
          <text font-size="12.8" style="fill: #000000; fill-opacity: 1; stroke: none;text-anchor:middle;font-family:sans-serif;font-style:normal;font-weight:normal" x="1310" y="463.881">
            <tspan x="1310" y="463.881"></tspan>
          </text>
        </g>
        <line style="fill: none; stroke-opacity: 1; stroke-width: 2; stroke: #000000" x1="1380" y1="560" x2="1520" y2="420"/>
        <g>
          <rect style="fill: #cacaca; fill-opacity: 1; stroke-opacity: 1; stroke-width: 2; stroke: #000000" x="1100" y="80" width="420" height="260" rx="0" ry="0"/>
          <text font-size="12.8" style="fill: #000000; fill-opacity: 1; stroke: none;text-anchor:middle;font-family:sans-serif;font-style:normal;font-weight:normal" x="1310" y="213.881">
            <tspan x="1310" y="213.881"></tspan>
          </text>
          <rect style="fill: #e5e5e5; fill-opacity: 1; stroke-opacity: 1; stroke-width: 2; stroke: #000000" x="1120" y="280" width="380" height="40" rx="0" ry="0"/>
          <rect style="fill: #e5e5e5; fill-opacity: 1; stroke-opacity: 1; stroke-width: 2; stroke: #000000" x="1120" y="220" width="380" height="40" rx="0" ry="0"/>
          <rect style="fill: #e5e5e5; fill-opacity: 1; stroke-opacity: 1; stroke-width: 2; stroke: #000000" x="1120" y="160" width="380" height="40" rx="0" ry="0"/>
          <rect style="fill: #cacaca; fill-opacity: 1; stroke-opacity: 1; stroke-width: 2.35099e-37; stroke: #cacaca" x="1120" y="100" width="380" height="40" rx="0" ry="0"/>
          <rect style="fill: #cacaca; fill-opacity: 1; stroke-opacity: 1; stroke-width: 2; stroke: #000000" x="1120" y="440" width="380" height="40" rx="0" ry="0"/>
          <line style="fill: none; stroke-opacity: 1; stroke-width: 2; stroke: #000000" x1="1100" y1="400" x2="1140" y2="360"/>
          <line style="fill: none; stroke-opacity: 1; stroke-width: 2; stroke: #000000" x1="1100" y1="440" x2="1180" y2="360"/>
          <line style="fill: none; stroke-opacity: 1; stroke-width: 2; stroke: #000000" x1="1180" y1="560" x2="1380" y2="360"/>
          <line style="fill: none; stroke-opacity: 1; stroke-width: 2; stroke: #000000" x1="1100" y1="520" x2="1260" y2="360"/>
          <line style="fill: none; stroke-opacity: 1; stroke-width: 2; stroke: #000000" x1="1100" y1="560" x2="1300" y2="360"/>
          <line style="fill: none; stroke-opacity: 1; stroke-width: 2; stroke: #000000" x1="1100" y1="480" x2="1220" y2="360"/>
          <line style="fill: none; stroke-opacity: 1; stroke-width: 2; stroke: #000000" x1="1140" y1="560" x2="1340" y2="360"/>
          <line style="fill: none; stroke-opacity: 1; stroke-width: 2; stroke: #000000" x1="1500" y1="560" x2="1520" y2="540"/>
          <line style="fill: none; stroke-opacity: 1; stroke-width: 2; stroke: #000000" x1="1460" y1="560" x2="1520" y2="500"/>
          <line style="fill: none; stroke-opacity: 1; stroke-width: 2; stroke: #000000" x1="1220" y1="560" x2="1420" y2="360"/>
          <line style="fill: none; stroke-opacity: 1; stroke-width: 2; stroke: #000000" x1="1260" y1="560" x2="1460" y2="360"/>
          <line style="fill: none; stroke-opacity: 1; stroke-width: 2; stroke: #000000" x1="1300" y1="560" x2="1500" y2="360"/>
          <line style="fill: none; stroke-opacity: 1; stroke-width: 2; stroke: #000000" x1="1340" y1="560" x2="1520" y2="380"/>
          <line style="fill: none; stroke-opacity: 1; stroke-width: 2; stroke: #000000" x1="1420" y1="560" x2="1520" y2="460"/>
        </g>
        <text font-size="135.467" style="fill: #000000; fill-opacity: 1; stroke: none;text-anchor:middle;font-family:sans-serif;font-style:normal;font-weight:700" x="1310" y="336.897">
          <tspan x="1310" y="336.897">VMCB</tspan>
        </text>
      </g>
      <line style="fill: none; stroke-opacity: 1; stroke-width: 2; stroke: #000000" x1="1540" y1="290" x2="1710.5" y2="327.888"/>
      <polygon style="fill: #000000; fill-opacity: 1; stroke-opacity: 1; stroke-width: 2; stroke: #000000" fill-rule="evenodd" points="1717.82,329.515 1706.97,332.227 1710.5,327.888 1709.14,322.465 "/>
    </g>
    <rect style="fill: #ffffff; fill-opacity: 1; stroke-opacity: 1; stroke-width: 0.02; stroke: #000000" x="1340" y="520" width="20" height="300" rx="0" ry="0"/>
    <rect style="fill: #ffffff; fill-opacity: 1; stroke-opacity: 1; stroke-width: 0.02; stroke: #000000" x="1340" y="0" width="20" height="300" rx="0" ry="0"/>
    <rect style="fill: #ffffff; fill-opacity: 1; stroke-opacity: 1; stroke-width: 0.02; stroke: #000000" x="1340" y="300" width="20" height="220" rx="0" ry="0"/>
    <line style="fill: none; stroke-opacity: 1; stroke-width: 0.02; stroke: #000000" x1="1340" y1="820" x2="0" y2="820"/>
    <g>
      <path style="fill: none; stroke-opacity: 1; stroke-width: 2; stroke-dasharray: 4; stroke: #000000" d="M 400,420 A 2115,2115 0 0 0 970.313,440.98"/>
      <polygon style="fill: #000000; fill-opacity: 1; stroke-opacity: 1; stroke-width: 2; stroke: #000000" fill-rule="evenodd" points="977.776,440.23 968.344,446.233 970.316,441.003 967.314,436.287 "/>
    </g>
    <g>
      <path style="fill: none; stroke-opacity: 1; stroke-width: 2; stroke-dasharray: 20 8 4 8; stroke: #000000" d="M 221.68,67.5972 A 391.666,391.666 0 0 1 471.24,95.756"/>
      <polygon style="fill: #000000; fill-opacity: 1; stroke-opacity: 1; stroke-width: 2; stroke: #000000" fill-rule="evenodd" points="478,99.0001 466.82,99.0008 471.292,95.6464 471.291,90.0563 "/>
    </g>
  </g>
</svg>
